<svg xmlns="http://www.w3.org/2000/svg" viewBox="0 0 48.964 48.964">
  <defs>
    <style>
      .cls-1 {
        fill: #0f0c0d;
        fill-rule: evenodd;
      }
    </style>
  </defs>
  <path id="Path_1" data-name="Path 1" class="cls-1" d="M160.8,107.44c-13.517,0-24.48,11.238-24.48,25.1a25.057,25.057,0,0,0,16.742,23.817c1.225.23,1.671-.544,1.671-1.21,0-.6-.021-2.174-.033-4.27-6.81,1.518-8.247-3.364-8.247-3.364-1.114-2.9-2.719-3.672-2.719-3.672-2.223-1.558.168-1.526.168-1.526a5.156,5.156,0,0,1,3.75,2.586c2.184,3.837,5.731,2.729,7.125,2.086a5.417,5.417,0,0,1,1.554-3.356c-5.436-.633-11.152-2.786-11.152-12.406a9.841,9.841,0,0,1,2.52-6.735,9.23,9.23,0,0,1,.24-6.643s2.055-.675,6.732,2.573a22.664,22.664,0,0,1,12.258,0c4.674-3.248,6.726-2.573,6.726-2.573a9.232,9.232,0,0,1,.245,6.643,9.824,9.824,0,0,1,2.516,6.735c0,9.643-5.725,11.765-11.179,12.386a6.075,6.075,0,0,1,1.662,4.649c0,3.356-.03,6.064-.03,6.886,0,.67.442,1.452,1.683,1.207a25.061,25.061,0,0,0,16.729-23.814C185.284,118.678,174.321,107.44,160.8,107.44Z" transform="translate(-136.32 -107.44)"/>
</svg>
