<svg xmlns="http://www.w3.org/2000/svg" xmlns:xlink="http://www.w3.org/1999/xlink" viewBox="0 0 66.964 66.964">
  <defs>
    <style>
      .cls-1 {
        fill: #007ab7;
      }

      .cls-2 {
        fill: #fff;
      }

      .cls-3 {
        filter: url(#Oval);
      }
    </style>
    <filter id="Oval" x="0" y="0" width="66.964" height="66.964" filterUnits="userSpaceOnUse">
      <feOffset dy="3" input="SourceAlpha"/>
      <feGaussianBlur stdDeviation="3" result="blur"/>
      <feFlood flood-opacity="0.161"/>
      <feComposite operator="in" in2="blur"/>
      <feComposite in="SourceGraphic"/>
    </filter>
  </defs>
  <g id="Linkedin" transform="translate(9 6)">
    <g class="cls-3" transform="matrix(1, 0, 0, 1, -9, -6)">
      <ellipse id="Oval-2" data-name="Oval" class="cls-1" cx="24.482" cy="24.482" rx="24.482" ry="24.482" transform="translate(9 6)"/>
    </g>
    <path id="Linkedin-2" data-name="Linkedin" class="cls-2" d="M14.322,18.06V12.2c0-1.4-.021-3.2-1.943-3.2-1.949,0-2.241,1.527-2.241,3.1V18.06H6.4V6H9.977V7.649h.049A3.932,3.932,0,0,1,13.569,5.7c3.788,0,4.491,2.5,4.491,5.746v6.61Zm-10.284,0H.293V6H4.038V18.06h0ZM6.391,6H6.4ZM0,2.176A2.172,2.172,0,1,1,2.172,4.351,2.176,2.176,0,0,1,0,2.176Z" transform="translate(15.452 14.834)"/>
  </g>
</svg>
